<mxfile host="app.diagrams.net" modified="2023-12-18T02:48:53.848Z" agent="Mozilla/5.0 (Windows NT 10.0; Win64; x64) AppleWebKit/537.36 (KHTML, like Gecko) Chrome/120.0.0.0 Safari/537.36 Edg/120.0.0.0" version="21.6.1" etag="PJl7HfIHIDFc2aJzQ6yW" type="github">
  <diagram name="第 1 页" id="X6jedeHuy15LFIsFvOjl">
    <mxGraphModel>
      <root>
        <mxCell id="0" />
        <mxCell id="1" parent="0" />
      </root>
    </mxGraphModel>
  </diagram>
</mxfile>
